<svg xmlns="http://www.w3.org/2000/svg" version="1.1" baseProfile="full" viewBox="0 0 1 1" width="300px" height="300px">
  <path d="M 0.653073372946036 0.13044818699548527 L 0.47550826032863425 0.44087170991927765 L 0.13044818699548527 0.34692662705396404 L 0.44087170991927765 0.5244917396713658 L 0.34692662705396404 0.8695518130045148 L 0.5244917396713658 0.5591282900807224 L 0.8695518130045146 0.6530733729460362 L 0.5591282900807224 0.47550826032863425" fill="black"></path>
  <path d="M 0.6435062871369086 0.1535451753082675 L 0.482779245543571 0.4584254210369921 L 0.1535451753082675 0.3564937128630913 L 0.4584254210369921 0.517220754456429 L 0.3564937128630913 0.8464548246917325 L 0.517220754456429 0.5415745789630079 L 0.8464548246917325 0.6435062871369088 L 0.5415745789630079 0.48277924554357093" fill="white"></path>
  <path d="M 0.34692662705396404 0.13044818699548527 L 0.44087170991927765 0.47550826032863425 L 0.13044818699548527 0.6530733729460358 L 0.47550826032863425 0.5591282900807224 L 0.6530733729460358 0.8695518130045148 L 0.5591282900807223 0.5244917396713658 L 0.8695518130045147 0.346926627053964 L 0.5244917396713658 0.44087170991927765" fill="black"></path>
  <path d="M 0.35649371286309134 0.1535451753082675 L 0.4584254210369921 0.48277924554357093 L 0.1535451753082675 0.6435062871369086 L 0.48277924554357093 0.5415745789630079 L 0.6435062871369086 0.8464548246917325 L 0.5415745789630079 0.5172207544564291 L 0.8464548246917325 0.3564937128630913 L 0.5172207544564291 0.45842542103699213" fill="white"></path>
  <path d="M 0.5 0 L 0.4434314575050762 0.4434314575050762 L 0 0.49999999999999994 L 0.4434314575050762 0.5565685424949238 L 0.49999999999999994 1 L 0.5565685424949238 0.5565685424949238 L 1 0.5000000000000001 L 0.5565685424949238 0.44343145750507623" fill="black"></path>
  <path d="M 0.5 0.025000000000000022 L 0.4596949134723668 0.4596949134723668 L 0.025000000000000022 0.49999999999999994 L 0.4596949134723668 0.5403050865276332 L 0.49999999999999994 0.975 L 0.5403050865276332 0.5403050865276332 L 0.975 0.5000000000000001 L 0.5403050865276332 0.4596949134723668" fill="#eee"></path>
  <path d="M 0.14644660940672627 0.1464466094067262 L 0.42 0.5 L 0.1464466094067262 0.8535533905932737 L 0.5 0.58 L 0.8535533905932737 0.8535533905932738 L 0.58 0.5 L 0.8535533905932738 0.14644660940672632 L 0.5 0.42" fill="black"></path>
  <path d="M 0.16412427893638998 0.16412427893638992 L 0.443 0.5 L 0.16412427893638992 0.8358757210636101 L 0.5 0.5569999999999999 L 0.8358757210636101 0.8358757210636101 L 0.5569999999999999 0.5 L 0.8358757210636101 0.16412427893639003 L 0.5 0.443" fill="#eee"></path>
</svg>
