<svg xmlns="http://www.w3.org/2000/svg" version="1.1" baseProfile="full" viewBox="0 0 1 1" width="300px" height="300px">
  <path d="M 0.5 0 L 0.26488589908301075 0.17639320225002098 L 0.024471741852423234 0.3454915028125263 L 0.11957739348193852 0.623606797749979 L 0.20610737385376338 0.9045084971874737 L 0.49999999999999994 0.9 L 0.7938926261462365 0.9045084971874737 L 0.8804226065180614 0.6236067977499791 L 0.9755282581475768 0.3454915028125264 L 0.7351141009169894 0.17639320225002109" fill="red"></path>
  <path d="M 0.5 0.025000000000000022 L 0.3324812030966452 0.26943015660313996 L 0.0482481547598021 0.35321692767189994 L 0.22894889285588121 0.58806984339686 L 0.22080200516107523 0.8842830723281 L 0.49999999999999994 0.7849999999999999 L 0.7791979948389247 0.8842830723281 L 0.7710511071441187 0.5880698433968601 L 0.951751845240198 0.35321692767190005 L 0.6675187969033549 0.26943015660314007" fill="white"></path>
  <path d="M 0.5 0.025000000000000022 L 0.3883208020644301 0.34628677106876 L 0.0482481547598021 0.35321692767189994 L 0.3192992619039208 0.55871322893124 L 0.22080200516107523 0.8842830723281 L 0.5 0.69 L 0.7791979948389247 0.8842830723281 L 0.6807007380960792 0.55871322893124 L 0.951751845240198 0.35321692767190005 L 0.6116791979355699 0.34628677106876005" fill="red"></path>
</svg>
