<svg xmlns="http://www.w3.org/2000/svg" version="1.1" baseProfile="full" viewBox="0 0 1 1" width="300px" height="300px">
  <path d="M 0.14644660940672627 0.1464466094067262 L 0.15000000000000002 0.5 L 0.1464466094067262 0.8535533905932737 L 0.49999999999999994 0.85 L 0.8535533905932737 0.8535533905932738 L 0.85 0.5000000000000001 L 0.8535533905932738 0.14644660940672632 L 0.5000000000000001 0.15000000000000002" fill="black"></path>
  <path d="M 0.18180194846605363 0.18180194846605358 L 0.185 0.5 L 0.18180194846605358 0.8181980515339464 L 0.49999999999999994 0.815 L 0.8181980515339464 0.8181980515339464 L 0.815 0.5000000000000001 L 0.8181980515339464 0.1818019484660537 L 0.5000000000000001 0.185" fill="white"></path>
  <path d="M 0.5 0.15000000000000002 L 0.3267588386092959 0.3267588386092959 L 0.15000000000000002 0.5 L 0.3267588386092959 0.6732411613907041 L 0.49999999999999994 0.85 L 0.6732411613907041 0.6732411613907041 L 0.85 0.5000000000000001 L 0.6732411613907041 0.3267588386092959" fill="black"></path>
  <path d="M 0.5 0.2 L 0.35150757595082505 0.35150757595082505 L 0.2 0.5 L 0.35150757595082505 0.648492424049175 L 0.49999999999999994 0.8 L 0.648492424049175 0.648492424049175 L 0.8 0.5 L 0.648492424049175 0.35150757595082505" fill="white"></path>
  <path d="M 0.3267588386092959 0.3267588386092959 L 0.3285 0.5 L 0.3267588386092959 0.6732411613907041 L 0.5 0.6715 L 0.6732411613907041 0.6732411613907041 L 0.6715 0.5 L 0.6732411613907041 0.3267588386092959 L 0.5 0.3285" fill="black"></path>
  <path d="M 0.36211417766862325 0.3621141776686232 L 0.36350000000000005 0.5 L 0.3621141776686232 0.6378858223313768 L 0.5 0.6365 L 0.6378858223313768 0.6378858223313768 L 0.6365 0.5 L 0.6378858223313768 0.36211417766862325 L 0.5 0.36350000000000005" fill="white"></path>
  <path d="M 0.5 0.33499999999999996 L 0.4183291667729538 0.41832916677295373 L 0.33499999999999996 0.5 L 0.41832916677295373 0.5816708332270463 L 0.5 0.665 L 0.5816708332270463 0.5816708332270463 L 0.665 0.5 L 0.5816708332270463 0.4183291667729538" fill="black"></path>
  <path d="M 0.5 0.385 L 0.44307790411448295 0.4430779041144829 L 0.385 0.5 L 0.4430779041144829 0.5569220958855171 L 0.5 0.615 L 0.5569220958855171 0.5569220958855171 L 0.615 0.5 L 0.5569220958855171 0.44307790411448295" fill="white"></path>
</svg>
